<svg id="Layer_3" enable-background="new 0 0 64 64" height="512" viewBox="0 0 64 64" width="512" xmlns="http://www.w3.org/2000/svg"><g><g><path d="m50 20v-12h-26v54h38v-42z" fill="#c7e2fc"/></g><g><path d="m50 8h-9.524c-3.457 5.006-5.476 11.024-5.476 17.5 0 15.579 11.672 28.508 27 31.042v-36.542h-12z" fill="#ebf7fe"/></g><g><path d="m48 50h8c1.105 0 2 .895 2 2v6h-12v-6c0-1.105.895-2 2-2z" fill="#3d98f7"/></g><g><path d="m52 40c1.657 0 3 1.343 3 3v2c0 1.657-1.343 3-3 3-1.657 0-3-1.343-3-3v-2c0-1.657 1.343-3 3-3z" fill="#efbe9a"/></g><g><path d="m21 33.719c-.972.185-1.975.281-3 .281-8.837 0-16-7.163-16-16s7.163-16 16-16 16 7.163 16 16c0 1.025-.096 2.028-.281 3" fill="#669e4f"/></g><g><path d="m22 38c8.837 0 16-7.163 16-16l-20-4z" fill="#c66b60"/></g><g><path d="m62 20h-12v-12" fill="#8892a0"/></g><g><path d="m18 35c-9.374 0-17-7.626-17-17s7.626-17 17-17 17 7.626 17 17c0 1.07-.101 2.143-.299 3.187l-1.965-.373c.175-.921.264-1.869.264-2.814 0-8.271-6.729-15-15-15s-15 6.729-15 15 6.729 15 15 15c.945 0 1.893-.089 2.813-.264l.373 1.965c-1.043.198-2.116.299-3.186.299z"/></g><g><path d="m22 39c-.477 0-.887-.337-.98-.804l-4-20c-.065-.328.037-.667.273-.903.236-.237.575-.337.903-.273l20 4c.467.093.804.503.804.98 0 9.374-7.626 17-17 17zm-2.726-19.726 3.541 17.704c7.623-.411 13.752-6.54 14.163-14.163z"/></g><g><path d="m8 9h2v2h-2z"/></g><g><path d="m12 9h16v2h-16z"/></g><g><path d="m26 13h2v2h-2z"/></g><g><path d="m8 13h16v2h-16z"/></g><g><path d="m62 63h-38c-.553 0-1-.447-1-1v-24h2v23h36v-40h-11c-.553 0-1-.447-1-1v-11h-19v-2h20c.553 0 1 .447 1 1v11h11c.553 0 1 .447 1 1v42c0 .553-.447 1-1 1z"/></g><g><path d="m55 5.515h2v16.971h-2z" transform="matrix(.707 -.707 .707 .707 6.503 43.699)"/></g><g><path d="m58 59h-12c-.553 0-1-.447-1-1v-6c0-1.654 1.346-3 3-3h8c1.654 0 3 1.346 3 3v6c0 .553-.447 1-1 1zm-11-2h10v-5c0-.552-.448-1-1-1h-8c-.552 0-1 .448-1 1z"/></g><g><path d="m54 53h2v5h-2z"/></g><g><path d="m48 53h2v5h-2z"/></g><g><path d="m52 49c-2.206 0-4-1.794-4-4v-2c0-2.206 1.794-4 4-4s4 1.794 4 4v2c0 2.206-1.794 4-4 4zm0-8c-1.103 0-2 .897-2 2v2c0 1.103.897 2 2 2s2-.897 2-2v-2c0-1.103-.897-2-2-2z"/></g><g><path d="m30 59c-.029 0-.06-.001-.09-.004-.345-.031-.649-.239-.805-.549l-2-4 1.789-.895 1.276 2.553 5.03-6.705 1.6 1.199-6 8c-.19.255-.487.401-.8.401z"/></g><g><path d="m30 47c-.029 0-.06-.001-.09-.004-.345-.031-.649-.239-.805-.549l-2-4 1.789-.895 1.276 2.553 5.03-6.705 1.6 1.199-6 8c-.19.255-.487.401-.8.401z"/></g><g><path d="m41 23h2v2h-2z"/></g><g><path d="m45 23h14v2h-14z"/></g><g><path d="m57 27h2v2h-2z"/></g><g><path d="m41 27h14v2h-14z"/></g></g></svg>