<?xml version="1.0" encoding="iso-8859-1"?>
<!-- Generator: Adobe Illustrator 16.0.0, SVG Export Plug-In . SVG Version: 6.00 Build 0)  -->
<!DOCTYPE svg PUBLIC "-//W3C//DTD SVG 1.1//EN" "http://www.w3.org/Graphics/SVG/1.1/DTD/svg11.dtd">
<svg version="1.1" id="Capa_1" xmlns="http://www.w3.org/2000/svg" xmlns:xlink="http://www.w3.org/1999/xlink" x="0px" y="0px"
	 width="823px" height="823px" viewBox="0 0 823 823" style="enable-background:new 0 0 823 823;" xml:space="preserve">
<g>
	<g>
		<path d="M411.5,823c210.4,0,381-48.4,381-108V578.8c-2.5,1.9-5,3.7-7.699,5.5c-22.701,15.2-54,28.5-93,39.601
			C616.4,645.2,516.9,657,411.5,657c-105.4,0-204.9-11.8-280.3-33.1c-39-11.101-70.3-24.4-93-39.601c-2.7-1.8-5.2-3.6-7.7-5.5V715
			C30.5,774.6,201.101,823,411.5,823z"/>
		<path d="M411.5,617c203.3,0,369.4-45.1,380.4-102c0.4-2,0.6-4,0.6-6V371.8c-2.5,1.9-5,3.7-7.699,5.5
			c-19.1,12.8-44.4,24.3-75.301,34.2c-5.699,1.8-11.6,3.6-17.699,5.4c-6.1,1.699-12.301,3.399-18.701,5
			c-14.799,3.699-30.299,7-46.5,10C562.9,443.7,488.801,450,411.5,450c-77.3,0-151.4-6.3-215.2-18.1c-16.2-3-31.7-6.4-46.5-10
			c-6.4-1.601-12.6-3.2-18.7-5c-6.1-1.7-12-3.5-17.7-5.4c-30.9-9.9-56.2-21.4-75.3-34.2c-2.7-1.8-5.2-3.6-7.7-5.5V509
			c0,2,0.2,4,0.6,6C42.101,571.9,208.201,617,411.5,617z"/>
		<path d="M196.3,391.1c20.7,4,42.8,7.5,66.101,10.301c45.8,5.5,96.199,8.6,149.1,8.6c52.9,0,103.3-3.1,149.099-8.6
			C583.9,398.6,606,395.1,626.701,391.1c94.199-18.3,158-48.3,165.199-82.6c0.5-2.2,0.699-4.3,0.699-6.5V108
			c0-59.6-170.6-108-381-108c-210.399,0-381,48.4-381,108v194c0,2.2,0.2,4.3,0.7,6.5C38.4,342.8,102.101,372.8,196.3,391.1z
			 M452.5,308.3c0,22.601-18.4,41-41,41c-22.6,0-41-18.399-41-41c0-22.6,18.4-41,41-41C434.1,267.3,452.5,285.7,452.5,308.3z"/>
	</g>
</g>
<g>
</g>
<g>
</g>
<g>
</g>
<g>
</g>
<g>
</g>
<g>
</g>
<g>
</g>
<g>
</g>
<g>
</g>
<g>
</g>
<g>
</g>
<g>
</g>
<g>
</g>
<g>
</g>
<g>
</g>
</svg>
